PathFileType	4	(X/Y/Z)	Demo_0-100.trc
DataRate	CameraRate	NumFrames	NumMarkers	Units	OrigDataRate	OrigDataStartFrame	OrigNumFrames
60	60	9	21	m	60	50	100
Frame#	Time	RHip			RKnee			RAnkle			RBigToe			RSmallToe			RHeel			LHip			LKnee			LAnkle			LBigToe			LSmallToe			LHeel			Neck			Head			Nose			RShoulder			RElbow			RWrist			LShoulder			LElbow			LWrist		
		X1	Y1	Z1	X2	Y2	Z2	X3	Y3	Z3	X4	Y4	Z4	X5	Y5	Z5	X6	Y6	Z6	X7	Y7	Z7	X8	Y8	Z8	X9	Y9	Z9	X10	Y10	Z10	X11	Y11	Z11	X12	Y12	Z12	X13	Y13	Z13	X14	Y14	Z14	X15	Y15	Z15	X16	Y16	Z16	X17	Y17	Z17	X18	Y18	Z18	X19	Y19	Z19	X20	Y20	Z20	X21	Y21	Z21
51	0.85	-0.22527367279640348	0.9990099475984042	-1.0072895832085023	-0.5195914733025938	0.7516463495122352	-0.8446790003271829	-0.791209624542724	0.44850908071397444	-0.8953268629785976	-0.8212625308267303	0.4086864442041196	-0.7210095718746526	-0.8391066365103819	0.3909032386144324	-0.8157941248417715	-0.8157799999752393	0.43883434050096504	-0.9445574910953495	-0.06948207386320211	0.8868447589646786	-1.0966694435027726	-0.0772004399499114	0.516229512556475	-0.9054480740448532	-0.021173796660463446	0.14683245064533246	-1.1497892453585636	-0.0023674046514405023	0.08182063153661044	-0.9955448189571533	0.024928737434158778	0.08229104116347787	-1.0328085785666876	-0.011382739550609049	0.1154448049033438	-1.199224436503218	0.24776174584007288	1.3152696129278874	-0.9344170407920398	0.4340169542954376	1.4796722386414376	-0.8108922500642826	0.32656519667456513	1.3504641495267509	-0.8044130019335907	0.098927877670027	1.4162848986371546	-0.9551431437351603	-0.16377982460222787	1.5062079773157917	-0.9799526208525614	-0.07424221158689272	1.6538150288261029	-0.8038713046228981	0.3053106819959093	1.1818441452757409	-1.0833070014309425	0.3829004559285218	0.8817430472086462	-1.0794104002789602	0.41509423494251735	0.6396316163240537	-0.9975826101457028
52	0.8666666666666667	-0.22230790974034648	1.0076520949239478	-0.9970516202799049	-0.5137151663625574	0.7549134382526294	-0.8427579028426613	-0.7762351783740383	0.44373600444839306	-0.8692093859765982	-0.8124375088151743	0.4003223238087845	-0.7188015927778866	-0.8149796271268368	0.3709981935616456	-0.8063731174483881	-0.7968503969623731	0.43396639000585346	-0.9346307767968847	-0.06967976777266457	0.8874549203359285	-1.099602673191505	-0.07596649589322609	0.5168761745014724	-0.903998842497993	-0.013355914428672034	0.14431761727547945	-1.1471805119088128	-0.008070269730262534	0.08028209153955389	-0.9987563512480114	0.023594857299439085	0.08256270297315535	-1.0290038957978649	-0.0067391948630679665	0.11584527880753782	-1.1984659512600648	0.2445600215776693	1.316251039734022	-0.9321864123179495	0.43413376900917977	1.4794827705406892	-0.8105157081297071	0.32850587209643456	1.344630175128508	-0.7894534711664832	0.0998624145316209	1.4138972570769262	-0.9392527384479544	-0.16588609673690724	1.5092343831449546	-0.9597298447010275	-0.0698311307652063	1.6452095431354206	-0.7872728786429323	0.3073158264608949	1.1848251085925257	-1.0737916960743796	0.3840374196847169	0.8843688656312199	-1.0715366127205368	0.42056675799053655	0.6421935838337615	-0.9920616996401775
53	0.8833333333333333	-0.22630592454779258	1.0022910173594848	-1.0010731075822723	-0.5115175060290662	0.7527649701833798	-0.8401887420820559	-0.7587183788222567	0.4375262449516208	-0.8708522367149644	-0.7899881708566022	0.39341893562170804	-0.7083044276004389	-0.7975255085824928	0.3625442433910463	-0.7805308635638359	-0.7629578434236434	0.37247429822938877	-0.8317722656545615	-0.028610460260297874	0.880421835564835	-1.002882886712971	-0.07266650540060914	0.5213056594482893	-0.9102698347647129	-0.009225678717797139	0.15783878208022906	-1.119068794318147	-0.01578914746877342	0.08362244782216643	-1.0041897618994	0.024137778310049054	0.0922711634113917	-1.0064453997546272	-0.002786495407568831	0.12049397718537247	-1.1708121154226117	0.24277807634939844	1.3191949830285261	-0.9282628134584572	0.42674665441565124	1.4868089383177499	-0.8018824673600536	0.3277706305501597	1.3478579414193093	-0.7887393585403312	0.09596543089083254	1.4200347364664099	-0.9304479123513071	-0.16286351873309718	1.5097082431182323	-0.9292668499434426	-0.05911661848007209	1.64086040205046	-0.7586665864168229	0.3314055107337776	1.1915304804842861	-0.9795054658659128	0.38785903228738094	0.8922875862233189	-1.0564663251952089	0.4208958415279848	0.6577923071848872	-0.9694167111885397
54	0.9	-0.22207016613698663	1.0040120516941984	-0.9924560791402676	-0.5020750789188568	0.7440936058713009	-0.8324296172983076	-0.7518326094225001	0.4298471750458378	-0.8722720284623589	-0.7975440686660035	0.36162320654030305	-0.7869705316443827	-0.7741336035004918	0.3464247983556867	-0.7843288476435626	-0.7551302090890443	0.4034007307791825	-0.8797262891413169	-0.07110255136763961	0.8931125059855546	-1.0948710036473797	-0.07052822604252401	0.5178460785403897	-0.915995473654032	-0.01014781676472385	0.14683139448135074	-1.1455006508690015	-0.009602371318216412	0.08255912463082413	-0.9961948677115996	0.024571553315526778	0.0899838463065678	-1.0242166121920113	-0.005639728413227707	0.11988268381850326	-1.1953162662611243	0.24111563637150518	1.322442374158718	-0.9307694249762991	0.42403394442155407	1.4860425408254474	-0.7813771310880382	0.32702478920482175	1.3515041060161423	-0.7880222563088762	0.0872038772460071	1.4114341106967256	-0.9575822646060015	-0.16870337925453668	1.5062719369720874	-0.9389366703489873	-0.0680592206778228	1.6315379172809898	-0.7621774903088758	0.323196400084535	1.189574576886511	-1.0128999530764937	0.3860335149701154	0.8940628643593339	-1.0653439589057117	0.4259264633573498	0.6437459125196245	-0.9809786990228512
55	0.9166666666666666	-0.2294072967717776	1.0043634383687015	-0.9855398280156271	-0.49219735078625837	0.740627089768298	-0.8249314025936985	-0.7231209273873385	0.4094385805033618	-0.8504738233639906	-0.7131441710999932	0.3207808551841525	-0.7329301370794634	-0.7598602384002096	0.3318165087428813	-0.7715546710196959	-0.7453803226195116	0.3825717836392096	-0.8788143339796579	-0.07545852706004233	0.8937826926999403	-1.087316204787642	-0.07073537785132156	0.5180202031456537	-0.9160654704740705	-0.009996077232182292	0.14764448444565983	-1.1434130235235331	-0.004739228787961275	0.08262937692401795	-0.9990159187552361	0.026239550976651156	0.08467969157397698	-1.0262507234670197	-0.00027943288412201554	0.11303049153551542	-1.191548656889692	0.24121993961893282	1.3224592618069122	-0.9311017421998525	0.41714371257441674	1.4873143943232812	-0.7798977765133772	0.3188355952860541	1.3406536441874155	-0.776124964110525	0.08566591398109921	1.4295295780922863	-0.9258665694043857	-0.1706390978862901	1.5106173165574937	-0.9227491707779119	-0.06802567633884939	1.6313254215885558	-0.7484541975631096	0.32266210005563406	1.1864163545577937	-1.0107423738190604	0.38875330162624483	0.8949154847006451	-1.0590750756674585	0.4265984672269155	0.6614560935285432	-0.9433557218297173
56	0.9333333333333333	-0.22562255307683166	1.0023882352473026	-0.9910318065003486	-0.4887718547209479	0.7312505675778234	-0.8151412112055181	-0.6920243885927818	0.39543718993867005	-0.8550048734205434	-0.7415759274976544	0.3445432737884277	-0.7710042433585642	-0.7245452598236751	0.32764305557559803	-0.763611191392413	-0.7132320231478722	0.3595689766356859	-0.8919021481604535	-0.06687778869769186	0.8965257288910959	-1.092590667556431	-0.07409505531481374	0.5251430023723007	-0.9139905529264412	-0.010734406731264336	0.14780192017877758	-1.1462627406732369	-0.008148509051113745	0.0835268399114255	-0.9953063387067432	0.024109741316882673	0.0872178202318988	-1.0308630935880507	-0.0006157110859666111	0.11373407163306246	-1.1948011211704277	0.21576900112407862	1.30755919031002	-0.9728534577625535	0.42498115809737436	1.4876224525887587	-0.7725688517203781	0.31976779288452745	1.3467241294340042	-0.7642169603717732	0.08216728459037441	1.428183970892778	-0.9221045224609369	-0.1778489895373362	1.5044279728043621	-0.9126677524482893	-0.06730006426454124	1.6271247520938976	-0.7420360946610108	0.32195949752457625	1.1941615179643903	-1.0050921338529049	0.38146664569264543	0.9022482541811288	-1.0465979206339653	0.4265561126826592	0.6545212717991804	-0.9720943351809459
57	0.95	-0.22621384994303784	1.0058862834746776	-0.9851851874102813	-0.4646408790345008	0.7184288527161177	-0.8093561218260404	-0.6632365672552087	0.3810006752513079	-0.8473358752578266	-0.6340081123698388	0.30941750458845807	-0.7161531010183367	-0.6934034608922517	0.31563861452914066	-0.747298073049964	-0.6846133592677933	0.34184893226327767	-0.8846462512501739	-0.07222489865913924	0.9038075964757422	-1.0912583008158088	-0.06814154674482695	0.5217842299228189	-0.9209586888147234	-0.013539733738740834	0.1445465242333356	-1.1475462108158332	-0.00653117165579683	0.08254143439049329	-0.995635217052268	0.023589320465495518	0.08807360593257306	-1.0302641715737195	-0.0024042014598388613	0.11307315271404259	-1.2015993701369243	0.22591949692983637	1.3116947612685663	-0.9406713523711145	0.41581511927385734	1.4829840195009658	-0.7623949499205124	0.3014748957484314	1.3505643641615173	-0.7458044042162937	0.08162338915541807	1.42734058604035	-0.9006326230208717	-0.1841889355134452	1.5039690111154904	-0.9038673428124169	-0.06630136350099884	1.619584008277889	-0.7311775845086915	0.32068390430191995	1.2040930135650731	-1.0021898986517375	0.3830191240861676	0.9137757133643958	-1.047982841139744	0.4315143392479581	0.6753797568793418	-0.9299414508093063
58	0.9666666666666667	-0.22384671506456139	1.0064546468732984	-0.975231349785993	-0.44367996580410374	0.70946129713164	-0.807644662692069	-0.6304175684324117	0.3630131799456275	-0.8324221340796228	-0.6158895363525037	0.30732301944256	-0.6707692263592868	-0.6712851564864427	0.3044425770804932	-0.7120803994796147	-0.6464462591435288	0.32084942353785334	-0.88072201808512	-0.07162476871448477	0.9024620578288567	-1.0812058414754986	-0.06600036103768342	0.5198123344998312	-0.9203217233699686	-0.013483594784143425	0.14247800437942604	-1.1490677877098554	-0.0034752683360270166	0.08277731586365462	-0.9980033144314333	0.025706935027427297	0.08645383746644954	-1.0285306111836998	-0.00426431756925941	0.11502921696076646	-1.2051551645664242	0.2241564094143664	1.3153811320312179	-0.9319141443771993	0.41263401995469506	1.4810811725232949	-0.7569294440793414	0.31048156137866323	1.3486552228367832	-0.7548551894538738	0.07016100252205543	1.418349030060066	-0.9328521318405117	-0.1776612391873574	1.5071442561242598	-0.8881391242729938	-0.06692623524624801	1.610471334921558	-0.7195451749170471	0.3242604800284231	1.2036790304870248	-0.9960032678040023	0.38940894815752247	0.9106311194102626	-1.0459029414521528	0.43752811672195213	0.6774158689564976	-0.9164902614557892
59	0.9833333333333333	-0.22453013132298796	1.0042579658956283	-0.9865748761516782	-0.42542620383168706	0.7030639651518336	-0.8115846161620238	-0.5935893685722967	0.3421040963802328	-0.8318786271844267	-0.5904576597095775	0.28299632416637244	-0.645690943601689	-0.6299930512631784	0.2813813206725239	-0.698423172536851	-0.6066057529596529	0.3088222941129842	-0.8488242873771477	-0.07200959280053303	0.9065033282914517	-1.084075741906954	-0.06655289746356452	0.5227663693133892	-0.9217447946759003	-0.01271123327055841	0.14613110022029613	-1.1541841721470936	-0.004134358114528166	0.07993743784602692	-0.9994330859810664	0.0242415318624767	0.08090726322542244	-1.03722035197793	-0.003940700704649232	0.11261883737511513	-1.2051825996238752	0.21644163506227895	1.318568251853659	-0.9125996097969052	0.3807282626085101	1.4866096270986464	-0.8243907958888609	0.29197747729306045	1.346389442470777	-0.7326081113530791	0.07540698239061866	1.4279485368704197	-0.8804750660132844	-0.18340669132262302	1.5033886611724532	-0.8800129318614363	-0.07208614457142756	1.6052987131081495	-0.7229546666292717	0.31860923386869344	1.206225531583225	-0.9917714118395466	0.39041776649594145	0.9157792338832905	-1.0338685797233758	0.44028287426037005	0.6859480050884832	-0.9142813032885863
